<svg version="1.1" id="Layer_1" xmlns="http://www.w3.org/2000/svg" xmlns:xlink="http://www.w3.org/1999/xlink" x="0px" y="0px" viewBox="0 0 45 45" style="enable-background:new 0 0 45 45;" xml:space="preserve">
<style type="text/css">
.facebook-border{fill:none;stroke:currentColor;stroke-miterlimit:10;stroke-width:2;}
                .facebook-logo{fill:currentColor;}
</style>
<circle class="facebook-border" cx="22.5" cy="22.5" r="20"/>
<path class="facebook-logo" d="M22.5,11.6c-6.1,0-11,4.9-11,11c0,5.5,4,10,9.3,10.9v-7.7H18v-3.2h2.8v-2.4c0-2.8,1.6-4.3,4.2-4.3&#10;                c1.2,0,2.5,0.2,2.5,0.2v2.7H26c-1.4,0-1.8,0.8-1.8,1.7v2.1h3.1l-0.5,3.2h-2.6v7.7c5.3-0.8,9.3-5.4,9.3-10.9&#10;                C33.5,16.5,28.6,11.6,22.5,11.6z"/>
</svg>