<svg xmlns="http://www.w3.org/2000/svg" viewBox="0 0 221.6 262.6" style="enable-background:new 0 0 221.6 262.6" xml:space="preserve"><path d="M19.6 232.9v17.9L2.3 232.9H0v29.7h6.2v-17.7l17.1 17.6v.1h2.5v-29.7zM40.2 232.8h6.2v29.8h-6.2zM70.8 232.9l-11.4 29.4-.1.4h6.6l1.7-4.5H80l1.7 4.5h6.6L76.9 233l-.1-.2h-6zm3.2 8.5 3.9 10.4-8 .1 4.1-10.5zM120.8 232.9v17.9l-17.3-17.9H101.2v29.7h6.2v-17.7l17 17.6.1.1h2.5v-29.7zM139.8 232.9v6h9.4v23.7h6.2v-23.7h9.4v-6zM177.8 232.8h6.2v29.8h-6.2zM217.3 254c-1.8 1.5-3.2 2.3-5.6 2.3-2.4 0-4.5-.8-5.9-2.3-1.5-1.5-2.3-3.6-2.3-6.3 0-2.4.8-4.5 2.3-6 1.5-1.6 3.5-2.4 5.9-2.4 2.4 0 3.8.8 5.7 2.3l.2.2 4.1-4.7-.2-.2c-2.9-2.6-5.7-4-9.8-4-4 0-7.5 1.4-10.2 4.3-2.7 2.8-4.1 6.4-4.1 10.5 0 4.2 1.4 7.8 4.1 10.7 2.8 2.8 6.2 4.3 10.2 4.3 4.1 0 6.9-1.3 9.8-4l.2-.2-4.1-4.7-.3.2zM106.1 173c.1.2.2.5.3.7.1.7.3 2 .4 2.5 0 .1-.1.2-.2.2l-24.9 2.5c-.2 0-.4-.1-.4-.3l-4.1-22.8c0-.2.2-.4.4-.4 11.5 1.4 23 8.6 28.5 17.6m2.8-23.9c6.1 1.2 16.5 6.6 22.3 12.5.5.5.4.9.4 1.1-2.9 6.9-10.6 11.9-18.7 13.5-.3.1-.6 0-.7-.3-.5-3.6-3.3-22.6-3.8-26.3-.1-.4.2-.6.5-.5m-4.3 13.7c-2.4-2.3-5.1-4.3-8-6-1.5-.9-3.6-2.1-6.2-3.2-.9-.4-1.7-.7-2.6-1l-2.7-.9c-2.6-.8-4.8-1.2-6.2-1.4-2.4-.4-4.9-.5-7.3-.4-.6 0-1 .5-.9 1.1l5.9 32.8c.1.5.5.8 1 .8h.1l12.9-1.3 11.4-1.1 5.5-.6s.1 0 .1.1l.5 3.6c.1.6.6 1 1.2.9h.1l11.1-1.1 13.2-1.3 16.3-1.6c.5-.1.8-.6.6-1-3.5-7.7-7.4-13.8-11.5-18.7-1.4-1.7-2.9-3.3-4.3-4.6-1-1-2.1-2-3.1-2.8-1.9-1.6-3.6-2.8-4.9-3.7-10.5-7-20-8-23.4-8.1h-.1c-.7 0-1.2.6-1.1 1.2l2.7 18.5c-.2-.2-.2-.1-.3-.2M146.8 198.6s9.4-3.2 14.5-4.7c.7-.2.5-1.2-.2-1.2l-67.6 3.7c-1.9.1-2.6-.3-3.8-1.1-1.3-1-1.6-1.8-3.4-1.7l-12.1.5c-.3 0-.6.3-.6.6-.1 4.2 2.1 20.3 12.1 20.9H88.5c3.2 7.1 9.7 6.2 11.5 6.1 6-.5 37.3-10.5 40.4-12.8 3.1-2.3 6.4-10.3 6.4-10.3"/><path d="M187.5 80.2c-1.2.6-4 1-8.3 1 0 0-.1 0-.1-.1-2.5 0-5.5-.2-9.1-.5-2.5-.3-5.1-.7-7.6-1.1l2.7-7.9c.3-1.2.8-3.2.9-3.4.1-.5.2-.9.3-1.4.1-.3.1-.7.2-1 0 0 .1-.1.1 0 13.4 7 19.7 12.2 20.9 14.4m-62.7-49s0 .1 0 0c-10.1 2.8-17.8 5.2-20.3 6-2.7.9-12 3.9-23.2 8.1-.2.1-.4.2-.6.2-.6.2-1.2.4-1.7.7-4.1 1.6-7.8 3.1-11.1 4.5.7-20.2 14.5-36.4 31.3-36.4 10.9 0 20.4 6.7 26 16.8-.1 0-.2.1-.4.1M55.9 45.5c0 .2-.1.3-.1.5-6.5-3.3-11.4-6.3-14.9-8.7h-.1c-3.4-2.4-5.4-4.3-6-5.5v-.1c2.3-1.1 10.4-1.7 25.3.4v.1c-1.9 4.2-3.3 8.7-4.2 13.3M62.3 88c.1 0 .1.1.2.2L81 151.3l5 1.2-16-55.3c-.3-.9.9-2 2.1-1 3.9 3.5 8.2 6.9 12.9 9.3l6.2 49.6 4.9 2.2-6.4-49.3c0-.1.1-.1.1-.1l2.2 1.2c4.5 3 7.7 8 8.9 13.2l.2.8c.3 1.3 1.5 2.3 2.8 2.3h14.4c1.4 0 2.5-.9 2.8-2.3l.2-.8c1.2-5.2 4.6-10.8 9-13.7l1.3-.7s.1 0 .1.1l-5.4 43.7 4 3.2s6.1-48.3 6.2-49.3c4.7-2.4 8.7-5.6 12.7-8.9 1.1-.9 2.4.1 2.1 1L133.7 158l3.2 4.5 19.8-66.7c.1-.2.1-.4.1-.4s-1.5-.2-2.2-.4c-.1 0-.3-.1-.4-.1-.6-.1-1.2-.2-1.9-.3-.2 0-.3-.1-.5-.1-.8-.1-1.6-.3-2.4-.5-.1 0-.2 0-.3-.1-.7-.1-1.5-.3-2.3-.5-.3-.1-.5-.1-.8-.2-.7-.2-1.5-.3-2.3-.5-.2 0-.4-.1-.6-.1-1-.2-1.9-.4-3-.6-.3-.1-.5-.1-.8-.2l-2.4-.6c-.3-.1-.6-.1-.9-.2-1.1-.3-2.2-.5-3.4-.8h-.1c-.7-.2-1.3-.3-2-.5-1.2-.3-2.3-.6-3.4-.9-.1 0-.3-.1-.4-.1-.7-.2-1.4-.4-2.1-.5-.2-.1-.5-.1-.8-.2-2.9-.8-6.1-1.7-9.5-2.8-4.5 3-9.7 4.7-15.2 4.7-11.9 0-22.3-8-27.6-19.9-1.7-.7-3.3-1.3-5-2-1 .5-2 1-3.1 1.4-.5.2-1 .5-1.5.7-.3.1-.6.3-.8.4-.7.3-1.3.6-2 1-.6.3-1.5.6-2 .9.4 1.3 2.6 6.5 2.8 7.1v.1c-14.8 2.1-22.9 1.5-25.1.4v-.1c.6-1.1 2.1-3 5.3-5.3.1-.1.1-.1.3-.2 2.7-1.9 6.2-4.1 10.7-6.5.1 0 .2-.1.3-.1 2.8-1.5 5.8-3.1 9.3-4.7.3-.1.6-.3.8-.4 37.9-18.2 74-26.2 91.6-29.3 19.6-3.6 30.9-3.3 33.8-1.8v.1c-1.2 2-6.9 7-19.6 13.6-.3.2-.9.4-.9.4-.4-2.2-1-4.4-1.6-6.5-.5.1-1 .1-1.5.2s-1 .1-1.5.2-1 .1-1.5.2c-.6.1-1.3.2-1.9.3-.4.1-.8.1-1.3.2-1.1.2-2.2.4-3.4.6-3.8.7-8.4 1.5-13.6 2.7-3.1.7-6.4 1.4-9.8 2.3.3 2 .4 4 .4 6.1 0 7.2-1.7 14-4.6 19.7-8.4-2.2-16.3-4.6-23.4-7-5.4-1.8-10.4-3.5-15.1-5.3-4.2 1.6-8.4 3.2-11.7 4.6 18.7 7.3 35.5 12.5 49.5 16.2.7.2 1.4.4 2.1.5.1 0 .3.1.4.1 1.1.3 2.3.6 3.4.9.7.2 1.4.3 2 .5h.1c14.8 3.6 25.4 5.3 30.1 6 5.4.7 10.5 1.2 14.9 1.2.9 0 1.8 0 2.7-.1 8.6-.4 13.6-2.7 15-6.9.3-.9.4-1.8.3-2.7-.6-6.6-10.3-14.5-29-23.5v-1.4c2.2-1.1 4.3-2.1 6.3-3.2 22.8-12.1 23.7-18.9 22.4-23-2.7-8.3-19.8-8-38.6-4.9h-.1c-11.7-16.3-32.3-26.5-55-23-15.5 2.3-29 11-37.6 23.4h-.1c-23.2-3.8-36.2-2.2-38.4 4.9-.2.6-.3 1.3-.4 2.1V31.4c0 4.2 3.9 10.6 22.8 20.7 2.2 1.2 4.5 2.3 6.9 3.5v.5c-1.2.6-2.9 1.5-3.1 1.5-16.3 8.1-29.4 17.3-26.8 25.3 1.3 4.2 6.4 6.5 15 6.9.8 0 1.7.1 2.7.1 4.6 0 10.1-.5 16.5-1.4M94.5 180.9l.1.7-.2-.7c-1.6.1-3.1.2-4.7.1l6 20.5 1.4.3.5 4 4.9 2.2-3.5-27.5c-1.5.2-3 .3-4.5.4M132.1 179.7h-4.6l-.1.5c0-.2 0-.3.1-.5-1.5 0-2.9-.1-4.4-.1l-2.3 19.1 1.7 1.4 2.6 3.7 7-24.1z"/></svg>