<svg version="1.1" id="Layer_1" xmlns="http://www.w3.org/2000/svg" xmlns:xlink="http://www.w3.org/1999/xlink" x="0px" y="0px" viewBox="0 0 45 45" style="enable-background:new 0 0 45 45;" xml:space="preserve">
<style type="text/css">
.instagram-border{fill:none;stroke:currentColor;stroke-miterlimit:10;stroke-width:2;}
                .instagram-logo{fill:currentColor;}
</style>
<circle class="instagram-border" cx="22.5" cy="22.5" r="20"/>
<g>
<path class="instagram-logo" d="M22.5,13.5c2.9,0,3.3,0,4.4,0.1c1.1,0,1.7,0.2,2,0.4c0.5,0.2,0.9,0.4,1.3,0.8c0.4,0.4,0.6,0.8,0.8,1.3&#10;                  c0.2,0.4,0.3,1,0.4,2c0.1,1.2,0.1,1.5,0.1,4.4s0,3.3-0.1,4.4c0,1.1-0.2,1.7-0.4,2c-0.2,0.5-0.4,0.9-0.8,1.3&#10;                  c-0.4,0.4-0.8,0.6-1.3,0.8c-0.4,0.2-1,0.3-2,0.4c-1.2,0.1-1.5,0.1-4.4,0.1s-3.3,0-4.4-0.1c-1.1,0-1.7-0.2-2-0.4&#10;                  c-0.5-0.2-0.9-0.4-1.3-0.8c-0.4-0.4-0.6-0.8-0.8-1.3c-0.2-0.4-0.3-1-0.4-2c-0.1-1.2-0.1-1.5-0.1-4.4s0-3.3,0.1-4.4&#10;                  c0-1.1,0.2-1.7,0.4-2c0.2-0.5,0.4-0.9,0.8-1.3c0.4-0.4,0.8-0.6,1.3-0.8c0.4-0.2,1-0.3,2-0.4C19.2,13.5,19.6,13.5,22.5,13.5&#10;                  M22.5,11.5c-3,0-3.4,0-4.5,0.1c-1.2,0.1-2,0.2-2.7,0.5c-0.7,0.3-1.3,0.7-1.9,1.3c-0.6,0.6-1,1.2-1.3,1.9c-0.3,0.7-0.5,1.5-0.5,2.7&#10;                  c-0.1,1.2-0.1,1.5-0.1,4.5c0,3,0,3.4,0.1,4.5c0.1,1.2,0.2,2,0.5,2.7c0.3,0.7,0.7,1.3,1.3,1.9c0.6,0.6,1.2,1,1.9,1.3&#10;                  c0.7,0.3,1.5,0.5,2.7,0.5c1.2,0.1,1.5,0.1,4.5,0.1s3.4,0,4.5-0.1c1.2-0.1,2-0.2,2.7-0.5c0.7-0.3,1.3-0.7,1.9-1.3&#10;                  c0.6-0.6,1-1.2,1.3-1.9c0.3-0.7,0.5-1.5,0.5-2.7c0.1-1.2,0.1-1.5,0.1-4.5s0-3.4-0.1-4.5c-0.1-1.2-0.2-2-0.5-2.7&#10;                  c-0.3-0.7-0.7-1.3-1.3-1.9c-0.6-0.6-1.2-1-1.9-1.3c-0.7-0.3-1.5-0.5-2.7-0.5C25.9,11.5,25.5,11.5,22.5,11.5L22.5,11.5z"/>
<path class="instagram-logo" d="M22.5,16.9c-3.1,0-5.6,2.5-5.6,5.6c0,3.1,2.5,5.6,5.6,5.6s5.6-2.5,5.6-5.6C28.1,19.4,25.6,16.9,22.5,16.9z&#10;                  M22.5,26.2c-2,0-3.7-1.6-3.7-3.7s1.6-3.7,3.7-3.7s3.7,1.6,3.7,3.7S24.5,26.2,22.5,26.2z"/>
<circle class="instagram-logo" cx="28.4" cy="16.6" r="1.3"/>
</g>
</svg>