<svg version="1.1" id="Layer_1" xmlns="http://www.w3.org/2000/svg" xmlns:xlink="http://www.w3.org/1999/xlink" x="0px" y="0px" viewBox="0 0 45 45" style="enable-background:new 0 0 45 45;" xml:space="preserve">
<style type="text/css">
.twitter-border{fill:none;stroke:currentColor;stroke-miterlimit:10;stroke-width:2;}
                .twitter-logo{fill:currentColor;}
</style>
<circle class="twitter-border" cx="22.5" cy="22.5" r="20"/>
<g>
<path class="twitter-logo" d="M18.4,31.4c8.3,0,12.8-6.9,12.8-12.8c0-0.2,0-0.4,0-0.6c0.9-0.6,1.6-1.4,2.3-2.3c-0.8,0.4-1.7,0.6-2.6,0.7&#10;                  c0.9-0.6,1.6-1.4,2-2.5C32,14.4,31.1,14.8,30,15c-0.8-0.9-2-1.4-3.3-1.4c-2.5,0-4.5,2-4.5,4.5c0,0.4,0,0.7,0.1,1&#10;                  c-3.8-0.2-7.1-2-9.3-4.7c-0.4,0.7-0.6,1.4-0.6,2.3c0,1.6,0.8,2.9,2,3.8c-0.7,0-1.4-0.2-2-0.6c0,0,0,0,0,0.1c0,2.2,1.6,4,3.6,4.4&#10;                  c-0.4,0.1-0.8,0.2-1.2,0.2c-0.3,0-0.6,0-0.8-0.1c0.6,1.8,2.2,3.1,4.2,3.1c-1.5,1.2-3.5,1.9-5.6,1.9c-0.4,0-0.7,0-1.1-0.1&#10;                  C13.5,30.7,15.9,31.4,18.4,31.4"/>
</g>
</svg>