<svg version="1.1" id="Layer_1" xmlns="http://www.w3.org/2000/svg" xmlns:xlink="http://www.w3.org/1999/xlink" x="0px" y="0px" viewBox="0 0 45 45" style="enable-background:new 0 0 45 45;" xml:space="preserve">
<style type="text/css">
.youtube-border{fill:none;stroke:currentColor;stroke-miterlimit:10;stroke-width:2;}
                .youtube-logo{fill:currentColor;}
</style>
<circle class="youtube-border" cx="22.5" cy="22.5" r="20"/>
<path class="youtube-logo" d="M33,17.2c-0.3-1-1-1.7-1.9-2c-1.7-0.5-8.6-0.5-8.6-0.5s-6.9,0-8.6,0.5c-0.9,0.3-1.7,1-1.9,2&#10;                c-0.5,1.7-0.5,5.3-0.5,5.3s0,3.6,0.5,5.3c0.3,1,1,1.7,1.9,2c1.7,0.5,8.6,0.5,8.6,0.5s6.9,0,8.6-0.5c0.9-0.3,1.7-1,1.9-2&#10;                c0.5-1.7,0.5-5.3,0.5-5.3S33.5,18.9,33,17.2z M20.2,25.8v-6.5l5.8,3.3L20.2,25.8z"/>
</svg>